# Blender v2.83.5 OBJ File: ''
# www.blender.org
mtllib floor.mtl
o Cube_Cube.001
v -5336.684570 -115.274345 3761.236084
v -5336.684570 119.344658 3761.236084
v -6521.947266 -115.274345 -414.527557
v -6521.947266 119.344658 -414.527557
v 6516.862305 -115.274345 396.686310
v 6516.862305 119.344658 396.686310
v 5331.599609 -115.274345 -3779.077393
v 5331.599609 119.344658 -3779.077393
vt 0.375000 0.000000
vt 0.625000 0.000000
vt 0.625000 0.250000
vt 0.375000 0.250000
vt 0.625000 0.500000
vt 0.375000 0.500000
vt 0.625000 0.750000
vt 0.375000 0.750000
vt 0.625000 1.000000
vt 0.375000 1.000000
vt 0.125000 0.500000
vt 0.125000 0.750000
vt 0.875000 0.500000
vt 0.875000 0.750000
vn -0.9620 0.0000 0.2731
vn -0.2731 0.0000 -0.9620
vn 0.9620 0.0000 -0.2731
vn 0.2731 0.0000 0.9620
vn 0.0000 -1.0000 0.0000
vn 0.0000 1.0000 0.0000
usemtl None
s off
f 1/1/1 2/2/1 4/3/1 3/4/1
f 3/4/2 4/3/2 8/5/2 7/6/2
f 7/6/3 8/5/3 6/7/3 5/8/3
f 5/8/4 6/7/4 2/9/4 1/10/4
f 3/11/5 7/6/5 5/8/5 1/12/5
f 8/5/6 4/13/6 2/14/6 6/7/6
